<?xml version="1.0" encoding="UTF-8"?>
<svg width="332px" height="274px" viewBox="0 0 332 274" version="1.1" xmlns="http://www.w3.org/2000/svg" xmlns:xlink="http://www.w3.org/1999/xlink">
    <!-- Generator: Sketch 49.3 (51167) - http://www.bohemiancoding.com/sketch -->
    <title>glossary</title>
    <desc>Created with Sketch.</desc>
    <defs></defs>
    <g id="Page-1" stroke="none" stroke-width="1" fill="none" fill-rule="evenodd">
        <g id="glossary" fill="#22222A" fill-rule="nonzero">
            <path d="M323.3,0 L228.89,0 C197.58,0 175.84,23.24 165.58,37.25 C155.32,23.24 133.58,0 102.27,0 L7.85,0 C3.52,0 -1.77635684e-15,4 -1.77635684e-15,9 L-1.77635684e-15,132.57 C-1.77635684e-15,137.57 3.52,141.57 7.85,141.57 C12.18,141.57 15.7,137.57 15.7,132.57 L15.7,18 L102.26,18 C132.63,18 152.79,47.11 157.72,55 L157.72,238.1 C142.23,223.6 116.6,213.51 81.1,207.99 C59.4512475,204.779045 37.5847087,203.264436 15.7,203.46 L15.7,175.24 C15.7,170.24 12.18,166.24 7.85,166.24 C3.52,166.24 -2.84217094e-14,170.24 -2.84217094e-14,175.24 L-2.84217094e-14,265 C-2.84217094e-14,270 3.52,274 7.85,274 L323.3,274 C327.64,274 331.15,270 331.15,265 L331.15,9 C331.16,4 327.64,0 323.3,0 Z M228.89,18 L315.45,18 L315.45,203.51 L312.26,203.51 C295.09,203.51 261.61,204.59 230.36,211.81 C204.93,217.69 185.89,226.52 173.43,238.18 L173.43,55 C178.33,47.07 198.35,18 228.89,18 Z M15.71,221.52 C36.8872978,221.335032 58.0471504,222.789375 79,225.87 C114.5,231.39 139.5,241.87 151.45,256.03 L15.71,256.03 L15.71,221.52 Z M179.6,256 C200.6,230.79 259.42,221.47 312.26,221.47 L315.45,221.47 L315.45,256 L179.6,256 Z" id="Shape"></path>
        </g>
    </g>
</svg>