<?xml version="1.0" encoding="UTF-8"?>
<svg width="45px" height="33px" viewBox="0 0 45 33" version="1.1" xmlns="http://www.w3.org/2000/svg" xmlns:xlink="http://www.w3.org/1999/xlink">
    <!-- Generator: sketchtool 51.2 (57519) - http://www.bohemiancoding.com/sketch -->
    <title>31501D98-9241-43F9-8F34-D986B9619F92</title>
    <desc>Created with sketchtool.</desc>
    <defs></defs>
    <g id="Page-1" stroke="none" stroke-width="1" fill="none" fill-rule="evenodd">
        <g id="Tablet" transform="translate(-360.000000, -2407.000000)">
            <g id="divider-above-notes" transform="translate(132.000000, 2407.000000)">
                <g id="acorn-art" transform="translate(228.000000, 0.000000)">
                    <path d="M16.6510117,4.80209118 L16.7277732,4.52068888 L16.8045131,4.23928976 L16.906828,3.98346876 L16.9835894,3.72764615 L17.0603317,3.47181556 L17.1370693,3.24157586 L17.239408,3.03692225 L17.3161591,2.83227503 L17.4184732,2.65318355 L17.4952378,2.47410964 L17.5975551,2.29504533 L17.6998914,2.14154793 L17.8022199,1.98805053 L17.9045507,1.86014882 L18.0324612,1.73221355 L18.134792,1.60432142 L18.2627025,1.50197385 L18.390605,1.39966462 L18.5185219,1.29733462 L18.6720097,1.22058272 L18.8255167,1.14383722 L18.9790045,1.06709172 L19.1324931,1.01593231 L19.3115718,0.964755325 L19.4906481,0.913595917 L19.6952961,0.862444497 L19.8999681,0.836850414 L20.1046305,0.811275503 L20.3092753,0.785691006 L20.5395166,0.760116095 L20.7953552,0.734514024 L21.0511762,0.734514024 C24.7094238,0.606609112 25.0164074,5.46723858 25.0164074,5.46723858 C25.1443243,6.7463484 16.1393657,6.5928526 16.6510117,4.80209118 Z" id="path38025" fill="#2E2E2E" fill-rule="nonzero"></path>
                    <path d="M16.318442,6.20912509 L16.2928647,6.20912509 L16.2672906,6.23470799 L16.2417045,6.26028609 L16.1905395,6.2858658 L16.1393657,6.3114455 L16.0626234,6.33703959 L16.0114632,6.38820379 L15.9347209,6.43936639 L15.8323813,6.4905258 L15.7556414,6.54168521 L15.6788959,6.61842911 L15.5765651,6.66960769 L15.4742375,6.77192811 L15.3718979,6.84867041 L15.2695727,6.92543349 L15.1672563,7.02776349 L15.0649167,7.13007432 L14.9625939,7.25800479 L14.8858548,7.38589692 L14.7835128,7.51382101 L14.6811876,7.64171953 L14.6044333,7.79522172 L14.5021113,7.92313621 L14.4253714,8.10220373 L14.3486067,8.25570592 L14.2974465,8.43478781 L14.2207042,8.61385533 L14.1951293,8.71618852 L14.1695528,8.81850574 L14.1439643,8.92083095 L14.1183846,9.02317053 L14.1183846,9.12550213 L14.0927881,9.22782893 L14.0672052,9.33015254 L14.0672052,9.43248574 C13.7602208,12.9116706 15.8835471,15.2396537 20.9488238,15.2396537 C25.9885368,15.2396537 27.2932271,12.4511864 27.2932271,9.96971385 C27.2932271,7.48824769 25.3489771,6.6440232 25.3489771,6.6440232 C25.3489771,6.6440232 23.8396363,7.1812513 21.0511762,7.1812513 C18.2627025,7.1812513 16.318442,6.20912509 16.318442,6.20912509 Z" id="path38027" fill="#2E2E2E" fill-rule="nonzero"></path>
                    <path d="M17.2905738,6.43936639 C17.2905738,6.43936639 16.0881999,7.53939592 13.964888,8.35802314" id="path38029"></path>
                    <path d="M19.4394855,7.07891331 C19.4394855,7.07891331 16.7277732,10.1999472 13.4276599,10.6092704" id="path38031" stroke="#FFFFFF"></path>
                    <path d="M22.3302732,7.1812513 C22.3302732,7.1812513 19.2348295,13.1930793 14.5021113,13.2954157" id="path38033" stroke="#FFFFFF"></path>
                    <path d="M24.7094238,6.84867041 C24.7094238,6.84867041 24.1722036,13.9605455 17.9301224,14.9326653" id="path38035" stroke="#FFFFFF"></path>
                    <path d="M26.5257625,7.07891331 C26.5257625,7.07891331 27.9327948,11.9139663 22.4581869,15.1373301" id="path38037" stroke="#FFFFFF"></path>
                    <path d="M24.5047622,6.84867041 C24.5047622,6.84867041 25.4768908,7.97430361 27.6257944,8.79292763" id="path38039" stroke="#FFFFFF"></path>
                    <path d="M22.4581869,7.07891331 C22.4581869,7.07891331 24.5047622,10.302282 27.8304472,10.7371928" id="path38041" stroke="#FFFFFF"></path>
                    <path d="M19.5418131,7.1812513 C19.5418131,7.1812513 22.1256116,12.9884161 26.8583298,13.0907525" id="path38043" stroke="#FFFFFF"></path>
                    <path d="M17.623138,6.7463484 C17.623138,6.7463484 18.1603637,14.1652007 24.376862,15.1373301" id="path38045" stroke="#FFFFFF"></path>
                    <path d="M42.2332577,18.3606764 L42.2332577,18.3350983 L42.2332577,18.3095282 L42.2076748,18.2839341 L42.2076748,18.2583576 L42.2076748,18.2071982 L42.2076748,18.1816185 L42.2076748,18.1304351 L42.2076748,18.0792853 L42.1820951,18.0281147 L42.1820951,17.9513772 L42.1820951,17.9002178 L42.1565178,17.8234499 L42.1565178,17.746714 L42.1309213,17.695553 L42.105344,17.5420492 L42.0797699,17.3885693 L42.0286097,17.2094938 L41.9774335,17.0559901 L41.9262765,16.9025102 L41.8751027,16.7234188 L41.7983684,16.5699293 L41.7472002,16.4931775 L41.7216229,16.4164399 L41.6704379,16.3652757 L41.6192865,16.288527 L41.5681263,16.2117831 L41.5169581,16.1606237 L41.4657931,16.0838622 L41.4146193,16.0326949 L41.3634591,15.9815418 L41.2867168,15.9303808 L41.2355542,15.879215 L41.1588031,15.8536321 L41.0820496,15.8280428 L41.0053129,15.7768786 L40.9285618,15.7513021 L40.8518083,15.7513021 L40.7750708,15.7257144 L40.6983197,15.7257144 L40.5959921,15.7257144 L40.4936693,15.7257144 L40.416919,15.7513021 L40.3145874,15.7768786 L40.1866769,15.8024536 L40.0843461,15.8536321 L39.9820377,15.9047915 L39.8541048,15.9559573 L39.7517956,16.0071199 L39.6238627,16.0838622 L39.4959602,16.1606237 L39.3680473,16.2629346 L39.2145563,16.3652757 L39.1634017,16.4164399 L39.0866426,16.4931775 L39.0099003,16.5443449 L38.9331604,16.6211079 L38.8564013,16.6722673 L38.7796582,16.7490096 C38.7796582,16.7490096 36.8609854,11.1464889 34.2771765,15.879215 C34.2771765,15.879215 28.2653533,11.8116379 27.1653246,17.3885693 C27.1653246,17.3885693 22.3302732,16.1094547 22.7907534,22.3515176 C22.7907534,22.3515176 30.7212493,13.5256394 42.2332577,18.3606764 Z" id="path38057" fill="#2E2E2E" fill-rule="nonzero"></path>
                    <path d="M43.3077259,19.5374706 L43.2821286,19.5374706 L43.2309549,19.5118845 L43.1797907,19.4863064 L43.1030611,19.4607363 L43.0263108,19.4351422 L42.7960695,19.3328026 L42.5402533,19.2560651 L42.2076748,19.1281602 L41.8239425,19.0258254 L41.3890452,18.8979173 L40.9285618,18.7700108 L40.416919,18.6420771 L39.8541048,18.5397695 L39.2657189,18.4374379 L38.6261592,18.3350983 L37.9610254,18.2583576 L37.2447209,18.2071982 L36.5284189,18.1560372 L35.7609543,18.1560372 L34.9934841,18.1816185 L34.1748569,18.2327747 L33.3562297,18.3095282 L32.5120028,18.463016 L31.6677847,18.6420771 L30.798006,18.8467451 L29.9281907,19.1281602 L29.0584064,19.4607363 L28.1630369,19.8700371 L27.7025535,20.0747051 L27.2676474,20.3049464 L26.8327437,20.560761 L26.3722827,20.8421585 L25.9373742,21.1235608 L25.5024681,21.4049775 L25.0419847,21.7375536 L24.6071033,22.0701057 L24.1722028,22.428252 L23.7372975,22.8120018 L23.3024162,23.2213091 L22.8675069,23.6306307 C22.8675069,23.6306307 29.9793732,25.3446482 29.5444671,21.4817278 C29.5444671,21.4817278 34.2771765,24.7050853 34.4818413,21.2514865 C34.4818413,21.2514865 37.3982223,23.6306307 39.1122199,20.6119156 C39.1122199,20.6119156 46.5310722,21.6863782 43.3077259,19.5374706 Z" id="path38059" fill="#2E2E2E" fill-rule="nonzero"></path>
                    <path d="M20.9488238,28.3633344 L21.1534934,28.7214998 L21.3837347,29.0796476 L21.6139768,29.4122237 L21.8442181,29.7447854 L22.1000319,30.0261893 L22.3302732,30.3075901 L22.6116915,30.5889924 L22.8675069,30.8192337 L23.1489116,31.0494766 L23.4303187,31.2541366 L23.7117202,31.4587982 L23.9931162,31.6378705 L24.3001086,31.8169508 L24.6071041,31.9704418 L24.9140822,32.0983531 L25.2210746,32.2262644 L25.5280534,32.3285944 L25.8350378,32.430918 L26.1676155,32.5076763 L26.4745999,32.5844106 L27.1141452,32.7123155 L27.7792958,32.7890786 L28.4188555,32.8146519 L29.0584064,32.8146519 L29.6979493,32.7890786 L30.3375226,32.7123155 L30.9514907,32.635578 L31.5398822,32.533248 L32.1282681,32.4053383 L32.6910847,32.277435 L33.2283048,32.1495173 L33.7143735,31.9960215 L34.200431,31.8425241 L34.6353403,31.6890347 L35.0190614,31.5355389 L35.377214,31.4076276 L35.530713,31.3308901 L35.6842088,31.2797163 L35.8121145,31.2029883 L35.9400274,31.151797 L36.0423558,31.1006504 L36.1446922,31.0750563 L36.2214377,31.0238969 L36.2981776,30.9983156 L36.3493346,30.972747 L36.4005108,30.9471562 L36.4260937,30.9471562 L36.4260937,30.9215557 L35.5818724,29.6424459 C17.2905738,37.4962075 21.3837347,15.879215 21.3837347,15.879215 L19.5418131,15.879215 C19.5418131,15.879215 18.4673672,23.7073714 20.9488238,28.3633344 Z" id="path38061" fill="#2E2E2E" fill-rule="nonzero"></path>
                    <path d="M15.2439954,5.90213828 C15.2439954,5.90213828 14.9370142,12.8860909 19.4394855,15.6745502" id="path38063" stroke="#FFFFFF"></path>
                    <path d="M0.0993199704,18.2583576 L0.150468994,18.1816185 L0.201631598,18.104857 L0.278377101,18.0281147 L0.329562071,17.9513772 L0.380713491,17.8746173 L0.431873698,17.8234499 L0.483041893,17.746714 L0.559803373,17.695553 L0.610954793,17.6188027 L0.662115,17.5676321 L0.764445799,17.4653117 L0.866782189,17.3629673 L0.969101805,17.2606533 L1.04584731,17.183903 L1.14819169,17.1071495 L1.25050331,17.0559901 L1.32726559,16.9792509 L1.42958521,16.9280867 L1.50633071,16.9025102 L1.58308101,16.8513237 L1.6854126,16.8257472 L1.76214932,16.8001691 L1.83891639,16.8001691 L1.94122802,16.7745878 L2.01796234,16.7745878 L2.0947326,16.7745878 L2.19705541,16.8001691 L2.27379772,16.8001691 L2.35055121,16.8257472 L2.45287402,16.8513237 L2.52961633,16.8769225 L2.63195272,16.9280867 L2.70868704,16.9536617 L2.81101784,17.0048291 L2.91335743,17.0559901 L3.01568263,17.1071495 L3.09242494,17.183903 C3.09242494,17.183903 5.03667817,13.0907525 7.82514311,16.5443449 C7.82514311,16.5443449 11.4833955,12.8860909 12.9927562,17.5932102 C12.9927562,17.5932102 16.6510117,14.395442 18.3650333,21.9166211 C18.3650333,21.9166211 8.69493293,13.5256394 1.1737666,18.8979173 L0.0993199704,18.2583576 Z" id="path38021" fill="#2E2E2E" fill-rule="nonzero"></path>
                    <path d="M2.63195272,19.5886444 L2.68311533,19.5630455 L2.75985843,19.5118845 L2.83659834,19.4351422 L2.96452243,19.3584015 L3.14359873,19.2816432 L3.32266704,19.1793228 L3.55290834,19.0769864 L3.78315044,18.974658 L4.06455435,18.8723184 L4.39713204,18.7955825 L4.72969935,18.6932573 L5.11342287,18.6420771 L5.52274367,18.5653412 L5.98322707,18.5397695 L6.44371047,18.5141754 L6.95535568,18.5141754 L7.5181587,18.5397695 L8.10654462,18.5909177 L8.72052142,18.6676792 L9.05309352,18.7188402 L9.38565763,18.7955825 L9.71823053,18.8723184 L10.0763831,18.9490815 L10.4345349,19.0514019 L10.7926987,19.1537383 L11.1764199,19.2560651 L11.585743,19.383978 L11.9694698,19.5374706 L12.3787882,19.6909776 L12.7881026,19.8444622 L13.2229975,20.0235313 L13.6579012,20.20261 L14.1183846,20.4072668 L14.5532707,20.6375065 L15.0393314,20.8677478 L15.4998148,21.0979907 L15.9858835,21.3538037 L16.4975319,21.6352188 L16.9835894,21.9166211 L17.5208151,22.2236047 L18.0324612,22.5561856 L18.5696813,22.8887346 L19.1324931,23.2468888 C19.1324931,23.2468888 17.2905738,24.9097389 16.4207808,22.9910662 C16.4207808,22.9910662 12.5578613,25.6772067 11.8159851,22.2236047 C11.8159851,22.2236047 7.7228203,24.0655367 6.44371047,20.5096096 C6.44371047,20.5096096 5.19018275,23.4771285 2.63195272,19.5886444 Z" id="path38023" fill="#2E2E2E" fill-rule="nonzero"></path>
                </g>
            </g>
        </g>
    </g>
</svg>